<?xml version="1.0" standalone="no"?><!DOCTYPE svg PUBLIC "-//W3C//DTD SVG 1.1//EN" "http://www.w3.org/Graphics/SVG/1.1/DTD/svg11.dtd">
<svg x="0.0000mm" y="0.0000mm" width="152.4000mm" height="26.4580mm" viewBox="0.0000 0.0000 152.4000 26.4580" version="1.1" xmlns="http://www.w3.org/2000/svg" shape-rendering="crispEdges">
<title>TBarCode - 11.11.3.16213</title>
<desc>BarCode licensed to MEM:TEC-IT Datenverarbeitung GmbH Internal License</desc>
<g fill="rgb(0%,0%,0%)">
</g>
<g fill="rgb(100%,100%,100%)">
<rect x="0.0000" y="0.0000" width="152.4000" height="26.4580" />
</g>
<g fill="rgb(0%,0%,0%)">
</g>
<g fill="rgb(0%,0%,0%)">
<rect x="0.0000" y="0.0000" width="1.0583" height="20.1864" />
<rect x="1.5875" y="0.0000" width="0.5292" height="20.1864" />
<rect x="3.1750" y="0.0000" width="1.5875" height="20.1864" />
<rect x="5.8208" y="0.0000" width="2.1167" height="20.1864" />
<rect x="8.4667" y="0.0000" width="0.5292" height="20.1864" />
<rect x="9.5250" y="0.0000" width="1.5875" height="20.1864" />
<rect x="11.6417" y="0.0000" width="1.0583" height="20.1864" />
<rect x="13.7583" y="0.0000" width="1.0583" height="20.1864" />
<rect x="15.8750" y="0.0000" width="1.0583" height="20.1864" />
<rect x="17.4625" y="0.0000" width="0.5292" height="20.1864" />
<rect x="19.0500" y="0.0000" width="1.0583" height="20.1864" />
<rect x="21.6958" y="0.0000" width="0.5292" height="20.1864" />
<rect x="23.2833" y="0.0000" width="0.5292" height="20.1864" />
<rect x="24.3417" y="0.0000" width="0.5292" height="20.1864" />
<rect x="25.9292" y="0.0000" width="1.0583" height="20.1864" />
<rect x="29.1042" y="0.0000" width="1.0583" height="20.1864" />
<rect x="30.6917" y="0.0000" width="1.0583" height="20.1864" />
<rect x="32.8083" y="0.0000" width="1.0583" height="20.1864" />
<rect x="34.9250" y="0.0000" width="1.5875" height="20.1864" />
<rect x="37.0417" y="0.0000" width="0.5292" height="20.1864" />
<rect x="38.1000" y="0.0000" width="1.0583" height="20.1864" />
<rect x="40.7458" y="0.0000" width="1.0583" height="20.1864" />
<rect x="43.3917" y="0.0000" width="0.5292" height="20.1864" />
<rect x="45.5083" y="0.0000" width="0.5292" height="20.1864" />
<rect x="46.5667" y="0.0000" width="0.5292" height="20.1864" />
<rect x="48.6833" y="0.0000" width="0.5292" height="20.1864" />
<rect x="49.7417" y="0.0000" width="1.0583" height="20.1864" />
<rect x="52.3875" y="0.0000" width="1.0583" height="20.1864" />
<rect x="54.5042" y="0.0000" width="0.5292" height="20.1864" />
<rect x="55.5625" y="0.0000" width="0.5292" height="20.1864" />
<rect x="58.2083" y="0.0000" width="1.0583" height="20.1864" />
<rect x="60.8542" y="0.0000" width="0.5292" height="20.1864" />
<rect x="62.4417" y="0.0000" width="0.5292" height="20.1864" />
<rect x="64.0292" y="0.0000" width="1.0583" height="20.1864" />
<rect x="66.1458" y="0.0000" width="0.5292" height="20.1864" />
<rect x="67.7333" y="0.0000" width="1.5875" height="20.1864" />
<rect x="69.8500" y="0.0000" width="0.5292" height="20.1864" />
<rect x="71.9667" y="0.0000" width="0.5292" height="20.1864" />
<rect x="73.5542" y="0.0000" width="1.0583" height="20.1864" />
<rect x="75.6708" y="0.0000" width="0.5292" height="20.1864" />
<rect x="76.7292" y="0.0000" width="1.0583" height="20.1864" />
<rect x="78.8458" y="0.0000" width="1.5875" height="20.1864" />
<rect x="81.4917" y="0.0000" width="0.5292" height="20.1864" />
<rect x="82.5500" y="0.0000" width="1.5875" height="20.1864" />
<rect x="85.1958" y="0.0000" width="1.0583" height="20.1864" />
<rect x="87.3125" y="0.0000" width="1.0583" height="20.1864" />
<rect x="88.9000" y="0.0000" width="1.5875" height="20.1864" />
<rect x="91.5458" y="0.0000" width="0.5292" height="20.1864" />
<rect x="93.1333" y="0.0000" width="0.5292" height="20.1864" />
<rect x="95.2500" y="0.0000" width="0.5292" height="20.1864" />
<rect x="96.8375" y="0.0000" width="1.0583" height="20.1864" />
<rect x="98.9542" y="0.0000" width="1.0583" height="20.1864" />
<rect x="100.5417" y="0.0000" width="1.0583" height="20.1864" />
<rect x="103.1875" y="0.0000" width="1.0583" height="20.1864" />
<rect x="104.7750" y="0.0000" width="1.0583" height="20.1864" />
<rect x="106.8917" y="0.0000" width="0.5292" height="20.1864" />
<rect x="109.0083" y="0.0000" width="0.5292" height="20.1864" />
<rect x="110.5958" y="0.0000" width="1.0583" height="20.1864" />
<rect x="112.7125" y="0.0000" width="1.0583" height="20.1864" />
<rect x="114.3000" y="0.0000" width="1.0583" height="20.1864" />
<rect x="116.4167" y="0.0000" width="0.5292" height="20.1864" />
<rect x="117.4750" y="0.0000" width="0.5292" height="20.1864" />
<rect x="119.5917" y="0.0000" width="1.0583" height="20.1864" />
<rect x="122.2375" y="0.0000" width="0.5292" height="20.1864" />
<rect x="124.3542" y="0.0000" width="1.0583" height="20.1864" />
<rect x="125.9417" y="0.0000" width="0.5292" height="20.1864" />
<rect x="128.0583" y="0.0000" width="2.1167" height="20.1864" />
<rect x="130.7042" y="0.0000" width="0.5292" height="20.1864" />
<rect x="132.2917" y="0.0000" width="0.5292" height="20.1864" />
<rect x="133.8792" y="0.0000" width="0.5292" height="20.1864" />
<rect x="134.9375" y="0.0000" width="1.5875" height="20.1864" />
<rect x="137.5833" y="0.0000" width="1.0583" height="20.1864" />
<rect x="139.7000" y="0.0000" width="0.5292" height="20.1864" />
<rect x="140.7583" y="0.0000" width="2.1167" height="20.1864" />
<rect x="143.9333" y="0.0000" width="0.5292" height="20.1864" />
<rect x="145.5208" y="0.0000" width="1.0583" height="20.1864" />
<rect x="148.1667" y="0.0000" width="1.5875" height="20.1864" />
<rect x="150.2833" y="0.0000" width="0.5292" height="20.1864" />
<rect x="151.3417" y="0.0000" width="1.0583" height="20.1864" />
</g>
<g fill="rgb(0%,0%,0%)">
<text x="76.2000" y="25.2821" transform="rotate(360 76.2000,25.2821)" text-anchor="middle" font-family="Arial" font-size="5.6444" >(02)07630054413476(11)200512(15)210531(10)0133378615</text>
</g>
</svg>
